<?xml version="1.0" encoding="UTF-8"?>
<svg width="193px" height="196px" viewBox="0 0 193 196" version="1.1" xmlns="http://www.w3.org/2000/svg" xmlns:xlink="http://www.w3.org/1999/xlink">
    <!-- Generator: Sketch 3.6.1 (26313) - http://www.bohemiancoding.com/sketch -->
    <title>Clear</title>
    <desc>Created with Sketch.</desc>
    <defs></defs>
    <g id="SketchAppSources.com" stroke="none" stroke-width="1" fill="none" fill-rule="evenodd">
        <g id="Weather-Icons" transform="translate(-331.000000, -287.000000)">
            <g id="icons" transform="translate(58.000000, 288.000000)">
                <g id="Clear" transform="translate(274.000000, 0.000000)">
                    <g id="bg" stroke="#FFFFFF" stroke-opacity="0.01">
                        <rect id="Rectangle-68" x="0" y="0" width="81" height="81" rx="4"></rect>
                    </g>
                    <g id="icon" transform="translate(37.000000, 40.000000)">
                        <g id="Moon" fill-opacity="0.6" fill="#000000">
                            <path d="M142,123.223815 C127.648491,142.506402 104.660649,155 78.7501376,155 C35.2576376,155 0,119.798244 0,76.3746779 C0,39.4144148 25.5430256,8.41058934 59.9658678,-9.21263066e-13 C50.9080085,12.8985037 45.5921849,28.6079109 45.5921849,45.5569273 C45.5921849,89.4348608 81.2187446,125.004954 125.166333,125.004954 C130.941929,125.004954 136.573811,124.390614 142,123.223815 Z" id="Oval-94"></path>
                        </g>
                        <g id="star" transform="translate(86.000000, 19.000000)" fill="#FFFFFF">
                            <path d="M11.7523049,15.7937564 C11.3202575,15.1775015 10.7611729,14.26555 9.07129813,11.8997253 C9.10649883,11.934926 0.981715788,1.49720408 0.981715788,1.49720408 C-0.0178712449,0.212920724 0.235086803,-0.00119841979 1.53599874,1.01062196 C1.53599874,1.01062196 11.8997248,9.07129763 11.8997249,9.0712978 C14.2238964,10.7314203 15.1593565,11.3146381 15.7838691,11.7523049 C16.4001241,11.3202575 17.3120756,10.7611729 19.6779003,9.07129813 C19.6426996,9.10649883 30.0804215,0.981715788 30.0804215,0.981715788 C31.3647048,-0.0178712449 31.578824,0.235086803 30.5670036,1.53599874 C30.5670036,1.53599874 22.5063279,11.8997248 22.5063277,11.8997249 C20.8462052,14.2238964 20.2629875,15.1593565 19.8253207,15.7838691 C20.2573681,16.4001241 20.8164526,17.3120756 22.5063274,19.6779003 C22.4711267,19.6426996 30.5959098,30.0804215 30.5959098,30.0804215 C31.5954968,31.3647048 31.3425387,31.578824 30.0416268,30.5670036 C30.0416268,30.5670036 19.6779008,22.5063279 19.6779006,22.5063277 C17.3537292,20.8462052 16.418269,20.2629875 15.7937564,19.8253207 C15.1775015,20.2573681 14.26555,20.8164526 11.8997253,22.5063274 C11.934926,22.4711267 1.49720408,30.5959098 1.49720408,30.5959098 C0.212920724,31.5954968 -0.00119841979,31.3425387 1.01062196,30.0416268 C1.01062196,30.0416268 9.07129763,19.6779008 9.0712978,19.6779006 C10.7314203,17.3537292 11.3146381,16.418269 11.7523049,15.7937564 L11.7523049,15.7937564 Z" id="Rectangle-71-Copy-2"></path>
                        </g>
                        <g id="star-mini" transform="translate(140.000000, 74.000000)" fill="#FFFFFF">
                            <path d="M4.02802994,6.00706534 C4.0441568,6.0231922 0.327155723,1.24804756 0.327155723,1.24804756 C-0.133716259,0.655912582 -0.020193904,0.554773493 0.575806184,1.01832911 C0.575806184,1.01832911 5.32384596,4.71124887 5.32384603,4.71124895 C6.38864245,5.47181785 6.81721439,5.73901336 7.10332872,5.93952613 C7.3856599,5.74158785 7.80346158,5.48544872 8.88734104,4.7112491 C8.87121419,4.72737596 13.6463588,1.01037489 13.6463588,1.01037489 C14.2384938,0.549502903 14.3396329,0.663025258 13.8760773,1.25902535 C13.8760773,1.25902535 10.1831575,6.00706512 10.1831574,6.00706519 C9.42258854,7.07186162 9.15539303,7.50043356 8.95488026,7.78654788 C9.15281854,8.06887906 9.40895767,8.48668074 10.1831573,9.57056021 C10.1670304,9.55443335 13.8840315,14.329578 13.8840315,14.329578 C14.3449035,14.921713 14.2313811,15.0228521 13.635381,14.5592964 C13.635381,14.5592964 8.88734127,10.8663767 8.88734119,10.8663766 C7.82254477,10.1058077 7.39397283,9.83861219 7.1078585,9.63809942 C6.82552733,9.8360377 6.40772565,10.0921768 5.32384618,10.8663764 C5.33997304,10.8502496 0.564828394,14.5672507 0.564828394,14.5672507 C-0.0273065802,15.0281226 -0.128445669,14.9146003 0.335109948,14.3186002 C0.335109948,14.3186002 4.02802971,9.57056043 4.02802979,9.57056036 C4.78859869,8.50576393 5.0557942,8.07719199 5.25630697,7.79107767 C5.05836869,7.50874649 4.80222956,7.09094481 4.02802994,6.00706534 Z" id="Rectangle-71-Copy-2"></path>
                        </g>
                    </g>
                </g>
            </g>
        </g>
    </g>
</svg>