<?xml version="1.0" encoding="UTF-8"?>
<svg width="206px" height="234px" viewBox="0 0 206 234" version="1.1" xmlns="http://www.w3.org/2000/svg" xmlns:xlink="http://www.w3.org/1999/xlink">
    <!-- Generator: Sketch 3.6.1 (26313) - http://www.bohemiancoding.com/sketch -->
    <title>ModRainSwrsNight</title>
    <desc>Created with Sketch.</desc>
    <defs></defs>
    <g id="SketchAppSources.com" stroke="none" stroke-width="1" fill="none" fill-rule="evenodd">
        <g id="Weather-Icons" transform="translate(-615.000000, -869.000000)">
            <g id="icons" transform="translate(58.000000, 288.000000)">
                <g id="ModRainSwrsNight" transform="translate(558.000000, 582.000000)">
                    <g id="bg" stroke="#FFFFFF" stroke-opacity="0.01">
                        <rect id="Rectangle-68" x="0" y="0" width="81" height="81" rx="4"></rect>
                    </g>
                    <g id="icon" transform="translate(26.000000, 4.000000)">
                        <g id="cloud-200w" transform="translate(7.000000, 43.000000)" fill="#FFFFFF">
                            <path d="M101.394795,103.333333 L36.3063063,103.333333 C16.254887,103.333333 0,87.0784463 0,67.027027 C0,46.9756077 16.254887,30.7207207 36.3063063,30.7207207 C42.3571912,30.7207207 48.0623481,32.2009586 53.0794176,34.819075 C60.065298,14.5564209 79.3012003,0 101.936937,0 C130.471649,0 153.603604,23.1319546 153.603604,51.6666667 C153.603604,52.2514893 153.593887,52.8340425 153.574606,53.4141737 C161.904202,57.8892085 167.567568,66.6841301 167.567568,76.8018018 C167.567568,91.4547621 155.688996,103.333333 141.036036,103.333333 L101.936937,103.333333 C101.855376,103.333318 101.394795,103.333333 101.394795,103.333333 L101.936937,103.333333 L101.394795,103.333333 Z" id="Oval-4"></path>
                        </g>
                        <g id="moon-mini" transform="translate(104.000000, 20.000000)" fill-opacity="0.6" fill="#000000">
                            <path d="M67.5743743,60.5389766 C60.6291493,69.3516102 49.9209878,75 37.9076087,75 C16.9718145,75 0,57.8456929 0,36.6847826 C0,18.3773188 12.7032824,3.06876896 29.6864646,-0.726910324 C24.8653057,5.72972099 22.0108696,13.740755 22.0108696,22.4184783 C22.0108696,43.8045046 39.3476693,61.1413043 60.7336957,61.1413043 C63.0679199,61.1413043 65.3539053,60.9347692 67.5743743,60.5389766 Z" id="Oval-94"></path>
                        </g>
                        <g id="star-mini" transform="translate(164.000000, 29.000000)" fill="#FFFFFF">
                            <path d="M4.02802994,6.00706534 C4.0441568,6.0231922 0.327155723,1.24804756 0.327155723,1.24804756 C-0.133716259,0.655912582 -0.020193904,0.554773493 0.575806184,1.01832911 C0.575806184,1.01832911 5.32384596,4.71124887 5.32384603,4.71124895 C6.38864245,5.47181785 6.81721439,5.73901336 7.10332872,5.93952613 C7.3856599,5.74158785 7.80346158,5.48544872 8.88734104,4.7112491 C8.87121419,4.72737596 13.6463588,1.01037489 13.6463588,1.01037489 C14.2384938,0.549502903 14.3396329,0.663025258 13.8760773,1.25902535 C13.8760773,1.25902535 10.1831575,6.00706512 10.1831574,6.00706519 C9.42258854,7.07186162 9.15539303,7.50043356 8.95488026,7.78654788 C9.15281854,8.06887906 9.40895767,8.48668074 10.1831573,9.57056021 C10.1670304,9.55443335 13.8840315,14.329578 13.8840315,14.329578 C14.3449035,14.921713 14.2313811,15.0228521 13.635381,14.5592964 C13.635381,14.5592964 8.88734127,10.8663767 8.88734119,10.8663766 C7.82254477,10.1058077 7.39397283,9.83861219 7.1078585,9.63809942 C6.82552733,9.8360377 6.40772565,10.0921768 5.32384618,10.8663764 C5.33997304,10.8502496 0.564828394,14.5672507 0.564828394,14.5672507 C-0.0273065802,15.0281226 -0.128445669,14.9146003 0.335109948,14.3186002 C0.335109948,14.3186002 4.02802971,9.57056043 4.02802979,9.57056036 C4.78859869,8.50576393 5.0557942,8.07719199 5.25630697,7.79107767 C5.05836869,7.50874649 4.80222956,7.09094481 4.02802994,6.00706534 Z" id="Rectangle-71-Copy-2"></path>
                        </g>
                        <g id="star" fill="#FFFFFF">
                            <path d="M11.7523049,15.7937564 C11.3202575,15.1775015 10.7611729,14.26555 9.07129813,11.8997253 C9.10649883,11.934926 0.981715788,1.49720408 0.981715788,1.49720408 C-0.0178712449,0.212920724 0.235086803,-0.00119841979 1.53599874,1.01062196 C1.53599874,1.01062196 11.8997248,9.07129763 11.8997249,9.0712978 C14.2238964,10.7314203 15.1593565,11.3146381 15.7838691,11.7523049 C16.4001241,11.3202575 17.3120756,10.7611729 19.6779003,9.07129813 C19.6426996,9.10649883 30.0804215,0.981715788 30.0804215,0.981715788 C31.3647048,-0.0178712449 31.578824,0.235086803 30.5670036,1.53599874 C30.5670036,1.53599874 22.5063279,11.8997248 22.5063277,11.8997249 C20.8462052,14.2238964 20.2629875,15.1593565 19.8253207,15.7838691 C20.2573681,16.4001241 20.8164526,17.3120756 22.5063274,19.6779003 C22.4711267,19.6426996 30.5959098,30.0804215 30.5959098,30.0804215 C31.5954968,31.3647048 31.3425387,31.578824 30.0416268,30.5670036 C30.0416268,30.5670036 19.6779008,22.5063279 19.6779006,22.5063277 C17.3537292,20.8462052 16.418269,20.2629875 15.7937564,19.8253207 C15.1775015,20.2573681 14.26555,20.8164526 11.8997253,22.5063274 C11.934926,22.4711267 1.49720408,30.5959098 1.49720408,30.5959098 C0.212920724,31.5954968 -0.00119841979,31.3425387 1.01062196,30.0416268 C1.01062196,30.0416268 9.07129763,19.6779008 9.0712978,19.6779006 C10.7314203,17.3537292 11.3146381,16.418269 11.7523049,15.7937564 L11.7523049,15.7937564 Z" id="Rectangle-71-Copy-2"></path>
                        </g>
                        <g id="raindrops-2" transform="translate(47.000000, 153.000000)" fill="#AEE8FF">
                            <path d="M9.37389964,2.78142681 C9.80208284,1.18342537 11.4498296,0.236493526 13.0469714,0.664446387 C14.6473697,1.09327182 15.5972925,2.7376283 15.1694546,4.33434108 L6.62610036,36.2185732 C6.19791716,37.8165746 4.55017044,38.7635065 2.95302862,38.3355536 C1.35263031,37.9067282 0.402707499,36.2623717 0.8305454,34.6656589 L9.37389964,2.78142681 Z M57.3186485,2.97608363 C57.7468317,1.37808219 59.3945784,0.431150342 60.9917202,0.859103203 C62.5921185,1.28792864 63.5420414,2.93228512 63.1142035,4.5289979 L54.5708492,36.41323 C54.142666,38.0112314 52.4949193,38.9581633 50.8977775,38.5302104 C49.2973792,38.101385 48.3474564,36.4570285 48.7752943,34.8603157 L57.3186485,2.97608363 Z M86.5081458,2.6503256 C86.9356493,1.05486066 88.5828451,0.109985058 90.1799869,0.537937919 C91.7803852,0.966763354 92.7298835,2.61270425 92.3037008,4.20323987 L87.3813519,22.5736959 C86.9538484,24.1691608 85.3066526,25.1140364 83.7095108,24.6860836 C82.1091125,24.2572581 81.1596142,22.6113172 81.585797,21.0207816 L86.5081458,2.6503256 Z M24.645747,3.20858773 C25.0751855,1.60590148 26.7239498,0.655171838 28.3210916,1.0831247 C29.92149,1.51195013 30.8687449,3.16626329 30.441302,4.76150201 L17.2437507,54.0154338 C16.8143122,55.61812 15.1655479,56.5688497 13.5684061,56.1408968 C11.9680078,55.7120714 11.0207528,54.0577582 11.4481958,52.4625195 L24.645747,3.20858773 Z M41.5657495,3.23355325 C41.9938401,1.63589757 43.6415117,0.689246011 45.2386535,1.11719887 C46.8390518,1.54602431 47.7905247,3.18459577 47.3613045,4.78646752 L28.982491,73.3771331 C28.5544005,74.9747888 26.9067288,75.9214404 25.309587,75.4934875 C23.7091887,75.0646621 22.7577158,73.4260906 23.1869361,71.8242189 L41.5657495,3.23355325 Z M71.9751184,2.98456624 C72.4045569,1.38187998 74.0533212,0.431150342 75.650463,0.859103203 C77.2508614,1.28792864 78.1981163,2.94224179 77.7706734,4.53748051 L64.5731221,53.7914123 C64.1436836,55.3940985 62.4949193,56.3448282 60.8977775,55.9168753 C59.2973792,55.4880499 58.3501242,53.8337367 58.7775672,52.238498 L71.9751184,2.98456624 Z" id="Rectangle-100"></path>
                        </g>
                    </g>
                </g>
            </g>
        </g>
    </g>
</svg>