<?xml version="1.0" encoding="UTF-8"?>
<svg width="203px" height="235px" viewBox="0 0 203 235" version="1.1" xmlns="http://www.w3.org/2000/svg" xmlns:xlink="http://www.w3.org/1999/xlink">
    <!-- Generator: Sketch 3.6.1 (26313) - http://www.bohemiancoding.com/sketch -->
    <title>CloudRainThunder</title>
    <desc>Created with Sketch.</desc>
    <defs></defs>
    <g id="SketchAppSources.com" stroke="none" stroke-width="1" fill="none" fill-rule="evenodd">
        <g id="Weather-Icons" transform="translate(-615.000000, -287.000000)">
            <g id="icons" transform="translate(58.000000, 288.000000)">
                <g id="CloudRainThunder" transform="translate(558.000000, 0.000000)">
                    <g id="bg" stroke="#FFFFFF" stroke-opacity="0.01">
                        <rect id="Rectangle-68" x="0" y="0" width="81" height="81" rx="4"></rect>
                    </g>
                    <g id="icon" transform="translate(33.000000, 47.000000)">
                        <g id="cloud-w/-light" fill="#FFFFFF">
                            <path d="M148.732093,103.568742 C160.134606,100.518241 168.535462,90.0682465 168.535462,77.6459531 C168.535462,67.4170751 162.839384,58.5254859 154.461676,54.0012647 C154.481067,53.4147571 154.49084,52.8258009 154.49084,52.2345503 C154.49084,23.3862047 131.225272,0 102.525739,0 C79.7592555,0 60.4122439,14.7164148 53.386012,35.2017818 C48.3399631,32.5548888 42.6018525,31.0583812 36.5160168,31.0583812 C16.3487776,31.0583812 1.56319402e-13,47.4919305 1.56319402e-13,67.7637409 C1.56319402e-13,88.0355513 16.3487776,104.469101 36.5160168,104.469101 L101.980466,104.469101 L101.980466,104.469101 L102.443725,104.469101 C102.443725,104.469101 102.443708,104.469085 102.443673,104.469054 C102.47101,104.469079 102.498372,104.469101 102.525739,104.469101 L104.860489,104.469101 L105.342646,102.661975 L116.33031,61.4801548 L117.122133,58.5123982 L120.19049,58.5123982 L147.160211,58.5123982 L152.919085,58.5123982 L150.902842,63.9128406 L144.163575,82.2093663 L153.153481,82.2093663 L159.700001,82.2093656 L156.706955,88.0381524 L148.732093,103.568742 Z" id="Oval-4"></path>
                        </g>
                        <g id="raindrops-2" transform="translate(24.000000, 111.000000)" fill="#AEE8FF">
                            <path d="M9.37389964,2.78142681 C9.80208284,1.18342537 11.4498296,0.236493526 13.0469714,0.664446387 C14.6473697,1.09327182 15.5972925,2.7376283 15.1694546,4.33434108 L6.62610036,36.2185732 C6.19791716,37.8165746 4.55017044,38.7635065 2.95302862,38.3355536 C1.35263031,37.9067282 0.402707499,36.2623717 0.8305454,34.6656589 L9.37389964,2.78142681 Z M57.3186485,2.97608363 C57.7468317,1.37808219 59.3945784,0.431150342 60.9917202,0.859103203 C62.5921185,1.28792864 63.5420414,2.93228512 63.1142035,4.5289979 L54.5708492,36.41323 C54.142666,38.0112314 52.4949193,38.9581633 50.8977775,38.5302104 C49.2973792,38.101385 48.3474564,36.4570285 48.7752943,34.8603157 L57.3186485,2.97608363 Z M86.5081458,2.6503256 C86.9356493,1.05486066 88.5828451,0.109985058 90.1799869,0.537937919 C91.7803852,0.966763354 92.7298835,2.61270425 92.3037008,4.20323987 L87.3813519,22.5736959 C86.9538484,24.1691608 85.3066526,25.1140364 83.7095108,24.6860836 C82.1091125,24.2572581 81.1596142,22.6113172 81.585797,21.0207816 L86.5081458,2.6503256 Z M24.645747,3.20858773 C25.0751855,1.60590148 26.7239498,0.655171838 28.3210916,1.0831247 C29.92149,1.51195013 30.8687449,3.16626329 30.441302,4.76150201 L17.2437507,54.0154338 C16.8143122,55.61812 15.1655479,56.5688497 13.5684061,56.1408968 C11.9680078,55.7120714 11.0207528,54.0577582 11.4481958,52.4625195 L24.645747,3.20858773 Z M41.5657495,3.23355325 C41.9938401,1.63589757 43.6415117,0.689246011 45.2386535,1.11719887 C46.8390518,1.54602431 47.7905247,3.18459577 47.3613045,4.78646752 L28.982491,73.3771331 C28.5544005,74.9747888 26.9067288,75.9214404 25.309587,75.4934875 C23.7091887,75.0646621 22.7577158,73.4260906 23.1869361,71.8242189 L41.5657495,3.23355325 Z M71.9751184,2.98456624 C72.4045569,1.38187998 74.0533212,0.431150342 75.650463,0.859103203 C77.2508614,1.28792864 78.1981163,2.94224179 77.7706734,4.53748051 L64.5731221,53.7914123 C64.1436836,55.3940985 62.4949193,56.3448282 60.8977775,55.9168753 C59.2973792,55.4880499 58.3501242,53.8337367 58.7775672,52.238498 L71.9751184,2.98456624 Z" id="Rectangle-100"></path>
                        </g>
                        <g id="light" transform="translate(109.000000, 63.000000)" fill="#FFF467">
                            <path d="M11.0000001,0 L6.81195909e-08,41.1818199 L17.9999996,41.1818199 L13.0000001,84 L44,23.6969681 L29.1428571,23.6969697 L38.0000005,0 L11.0000001,0 Z" id="Path-13"></path>
                        </g>
                    </g>
                </g>
            </g>
        </g>
    </g>
</svg>