<?xml version="1.0" encoding="UTF-8"?>
<svg width="203px" height="234px" viewBox="0 0 203 234" version="1.1" xmlns="http://www.w3.org/2000/svg" xmlns:xlink="http://www.w3.org/1999/xlink">
    <!-- Generator: Sketch 3.6.1 (26313) - http://www.bohemiancoding.com/sketch -->
    <title>HeavyRain</title>
    <desc>Created with Sketch.</desc>
    <defs></defs>
    <g id="SketchAppSources.com" stroke="none" stroke-width="1" fill="none" fill-rule="evenodd">
        <g id="Weather-Icons" transform="translate(-57.000000, -869.000000)">
            <g id="icons" transform="translate(58.000000, 288.000000)">
                <g id="HeavyRain" transform="translate(0.000000, 582.000000)">
                    <g id="bg" stroke="#FFFFFF" stroke-opacity="0.01">
                        <rect id="Rectangle-68" x="0" y="0" width="81" height="81" rx="4"></rect>
                    </g>
                    <g id="icon" transform="translate(34.000000, 47.000000)">
                        <g id="cloud-200w" fill="#FFFFFF">
                            <path d="M101.394795,103.333333 L36.3063063,103.333333 C16.254887,103.333333 0,87.0784463 0,67.027027 C0,46.9756077 16.254887,30.7207207 36.3063063,30.7207207 C42.3571912,30.7207207 48.0623481,32.2009586 53.0794176,34.819075 C60.065298,14.5564209 79.3012003,0 101.936937,0 C130.471649,0 153.603604,23.1319546 153.603604,51.6666667 C153.603604,52.2514893 153.593887,52.8340425 153.574606,53.4141737 C161.904202,57.8892085 167.567568,66.6841301 167.567568,76.8018018 C167.567568,91.4547621 155.688996,103.333333 141.036036,103.333333 L101.936937,103.333333 C101.855376,103.333318 101.394795,103.333333 101.394795,103.333333 L101.936937,103.333333 L101.394795,103.333333 Z" id="Oval-4"></path>
                        </g>
                        <g id="raindrops-2" transform="translate(40.000000, 110.000000)" fill="#AEE8FF">
                            <path d="M9.37389964,2.78142681 C9.80208284,1.18342537 11.4498296,0.236493526 13.0469714,0.664446387 C14.6473697,1.09327182 15.5972925,2.7376283 15.1694546,4.33434108 L6.62610036,36.2185732 C6.19791716,37.8165746 4.55017044,38.7635065 2.95302862,38.3355536 C1.35263031,37.9067282 0.402707499,36.2623717 0.8305454,34.6656589 L9.37389964,2.78142681 Z M57.3186485,2.97608363 C57.7468317,1.37808219 59.3945784,0.431150342 60.9917202,0.859103203 C62.5921185,1.28792864 63.5420414,2.93228512 63.1142035,4.5289979 L54.5708492,36.41323 C54.142666,38.0112314 52.4949193,38.9581633 50.8977775,38.5302104 C49.2973792,38.101385 48.3474564,36.4570285 48.7752943,34.8603157 L57.3186485,2.97608363 Z M86.5081458,2.6503256 C86.9356493,1.05486066 88.5828451,0.109985058 90.1799869,0.537937919 C91.7803852,0.966763354 92.7298835,2.61270425 92.3037008,4.20323987 L87.3813519,22.5736959 C86.9538484,24.1691608 85.3066526,25.1140364 83.7095108,24.6860836 C82.1091125,24.2572581 81.1596142,22.6113172 81.585797,21.0207816 L86.5081458,2.6503256 Z M24.645747,3.20858773 C25.0751855,1.60590148 26.7239498,0.655171838 28.3210916,1.0831247 C29.92149,1.51195013 30.8687449,3.16626329 30.441302,4.76150201 L17.2437507,54.0154338 C16.8143122,55.61812 15.1655479,56.5688497 13.5684061,56.1408968 C11.9680078,55.7120714 11.0207528,54.0577582 11.4481958,52.4625195 L24.645747,3.20858773 Z M41.5657495,3.23355325 C41.9938401,1.63589757 43.6415117,0.689246011 45.2386535,1.11719887 C46.8390518,1.54602431 47.7905247,3.18459577 47.3613045,4.78646752 L28.982491,73.3771331 C28.5544005,74.9747888 26.9067288,75.9214404 25.309587,75.4934875 C23.7091887,75.0646621 22.7577158,73.4260906 23.1869361,71.8242189 L41.5657495,3.23355325 Z M71.9751184,2.98456624 C72.4045569,1.38187998 74.0533212,0.431150342 75.650463,0.859103203 C77.2508614,1.28792864 78.1981163,2.94224179 77.7706734,4.53748051 L64.5731221,53.7914123 C64.1436836,55.3940985 62.4949193,56.3448282 60.8977775,55.9168753 C59.2973792,55.4880499 58.3501242,53.8337367 58.7775672,52.238498 L71.9751184,2.98456624 Z" id="Rectangle-100"></path>
                        </g>
                    </g>
                </g>
            </g>
        </g>
    </g>
</svg>