<?xml version="1.0" encoding="UTF-8"?>
<svg width="202px" height="199px" viewBox="0 0 202 199" version="1.1" xmlns="http://www.w3.org/2000/svg" xmlns:xlink="http://www.w3.org/1999/xlink">
    <!-- Generator: Sketch 3.6.1 (26313) - http://www.bohemiancoding.com/sketch -->
    <title>Mist</title>
    <desc>Created with Sketch.</desc>
    <defs></defs>
    <g id="SketchAppSources.com" stroke="none" stroke-width="1" fill="none" fill-rule="evenodd">
        <g id="Weather-Icons" transform="translate(-615.000000, -572.000000)">
            <g id="icons" transform="translate(58.000000, 288.000000)">
                <g id="Mist" transform="translate(558.000000, 285.000000)">
                    <g id="bg" stroke="#FFFFFF" stroke-opacity="0.01">
                        <rect id="Rectangle-68" x="0" y="0" width="81" height="81" rx="4"></rect>
                    </g>
                    <g id="icon" transform="translate(33.000000, 29.000000)">
                        <g id="cloud-200w" fill="#FFFFFF">
                            <path d="M101.394795,103.333333 L36.3063063,103.333333 C16.254887,103.333333 0,87.0784463 0,67.027027 C0,46.9756077 16.254887,30.7207207 36.3063063,30.7207207 C42.3571912,30.7207207 48.0623481,32.2009586 53.0794176,34.819075 C60.065298,14.5564209 79.3012003,0 101.936937,0 C130.471649,0 153.603604,23.1319546 153.603604,51.6666667 C153.603604,52.2514893 153.593887,52.8340425 153.574606,53.4141737 C161.904202,57.8892085 167.567568,66.6841301 167.567568,76.8018018 C167.567568,91.4547621 155.688996,103.333333 141.036036,103.333333 L101.936937,103.333333 C101.855376,103.333318 101.394795,103.333333 101.394795,103.333333 L101.936937,103.333333 L101.394795,103.333333 Z" id="Oval-4"></path>
                        </g>
                        <g id="fog" transform="translate(23.000000, 117.000000)" fill="#000000" fill-opacity="0.4">
                            <path d="M0,25.5026852 C0,23.0159208 2.01408076,21 4.50414974,21 L120.49585,21 C122.983423,21 125,23.0236492 125,25.5026852 L125,26.4973148 C125,28.9840792 122.985919,31 120.49585,31 L4.50414974,31 C2.01657653,31 0,28.9763508 0,26.4973148 L0,25.5026852 Z M0,4.83601855 C0,2.34925417 2.01408076,0.333333333 4.50414974,0.333333333 L120.49585,0.333333333 C122.983423,0.333333333 125,2.35698255 125,4.83601855 L125,5.83064811 C125,8.31741249 122.985919,10.3333333 120.49585,10.3333333 L4.50414974,10.3333333 C2.01657653,10.3333333 0,8.30968412 0,5.83064811 L0,4.83601855 Z M0,46.1693519 C0,43.6825875 2.01408076,41.6666667 4.50414974,41.6666667 L120.49585,41.6666667 C122.983423,41.6666667 125,43.6903159 125,46.1693519 L125,47.1639814 C125,49.6507458 122.985919,51.6666667 120.49585,51.6666667 L4.50414974,51.6666667 C2.01657653,51.6666667 0,49.6430175 0,47.1639814 L0,46.1693519 Z"></path>
                        </g>
                    </g>
                </g>
            </g>
        </g>
    </g>
</svg>