<?xml version="1.0" encoding="UTF-8"?>
<svg width="180px" height="200px" viewBox="0 0 180 200" version="1.1" xmlns="http://www.w3.org/2000/svg" xmlns:xlink="http://www.w3.org/1999/xlink">
    <!-- Generator: Sketch 3.6.1 (26313) - http://www.bohemiancoding.com/sketch -->
    <title>ModSnow</title>
    <desc>Created with Sketch.</desc>
    <defs></defs>
    <g id="SketchAppSources.com" stroke="none" stroke-width="1" fill="none" fill-rule="evenodd">
        <g id="Weather-Icons" transform="translate(-57.000000, -287.000000)">
            <g id="icons" transform="translate(58.000000, 288.000000)">
                <g id="ModSnow">
                    <g id="bg" stroke="#FFFFFF" stroke-opacity="0.01">
                        <rect id="Rectangle-68" x="0" y="0" width="81" height="81" rx="4"></rect>
                    </g>
                    <g id="icon" transform="translate(56.000000, 36.000000)" fill="#FFFFFF">
                        <g id="snow" transform="translate(0.000000, 20.000000)" fill-opacity="0.7">
                            <path d="M66.2781554,63.6528096 L66.2781554,40.2843882 L80.6911061,26.4751217 C82.3708031,24.8657785 82.3732718,22.2641044 80.6999813,20.6608994 C79.0150249,19.0465172 76.3097773,19.0615015 74.6315852,20.6694028 L66.2781554,28.6729505 L66.2781554,4.11821385 C66.2781554,1.81903294 64.3598172,0 61.9934271,0 C59.610539,0 57.7086988,1.84378714 57.7086988,4.11821385 L57.7086988,28.5416371 L49.492323,20.6694028 C47.812626,19.0600597 45.0972174,19.0576944 43.4239269,20.6608994 C41.7389706,22.2752817 41.75461,24.8672204 43.4328021,26.4751217 L57.7086988,40.1530747 L57.7086988,64.0786563 L36.7535138,51.9801746 L31.9598489,32.606809 C31.4028555,30.3557472 29.1659568,29.0462919 26.9290032,29.6920448 C24.7075372,30.3333268 23.3577161,32.6760161 23.9152089,34.9290965 L26.6977138,46.1744557 L7.16115208,33.7308378 C5.17000301,32.5812473 2.63962723,33.3259208 1.46151699,35.3664676 C0.275193183,37.4212407 0.92512621,39.983098 2.89483751,41.1203114 L22.4454796,53.5720586 L11.2929318,56.7915218 C9.06495843,57.4346823 7.70517073,59.7599349 8.26440915,62.02007 C8.81977566,64.264557 11.0741206,65.5632653 13.3040919,64.9195281 L32.5012796,59.3777775 L53.0920039,71.2658377 L32.4047094,83.2096528 L13.2700285,77.6859463 C11.0400573,77.0422091 8.78571232,78.3409174 8.23034581,80.5854044 C7.67110739,82.8455395 9.03089508,85.1707921 11.2588685,85.8139526 L22.3489094,89.0153716 L2.89785363,101.409623 C0.906704552,102.559213 0.286422863,105.12292 1.4645331,107.163466 C2.6508569,109.21824 5.19445689,109.93631 7.16416819,108.799096 L26.5015032,96.4705019 L23.7744812,107.49163 C23.2169884,109.74471 24.5668095,112.087399 26.7882755,112.728681 C29.0252291,113.374434 31.2621278,112.064979 31.8191212,109.813917 L36.5573032,90.6647831 L57.7086988,78.4530192 L57.7086988,102.616878 L43.265635,116.454996 C41.5874429,118.062898 41.5718035,120.654836 43.2567598,122.269219 C44.9300503,123.872424 47.6454589,123.870058 49.3251559,122.260715 L57.7086988,114.228316 L57.7086988,138.881786 C57.7086988,141.180967 59.627037,143 61.9934271,143 C64.3763152,143 66.2781554,141.156213 66.2781554,138.881786 L66.2781554,114.212057 L74.6786676,122.260715 C76.3568597,123.868617 79.0621073,123.883601 80.7470637,122.269219 C82.4203542,120.666014 82.4178855,118.06434 80.7381885,116.454996 L66.2781554,102.60062 L66.2781554,78.8788658 L86.4687189,90.5358931 L91.2523893,109.868866 C91.8098821,112.121946 94.0617689,113.424912 96.2832349,112.78363 C98.5201886,112.137877 99.8540226,109.79764 99.2970292,107.546579 L96.5245189,96.3416119 L115.975575,108.735863 C117.966724,109.885454 120.4971,109.14078 121.67521,107.100233 C122.861534,105.04546 122.211601,102.483603 120.241889,101.346389 L100.904554,89.0177951 L111.812642,85.8689015 C114.042613,85.2251643 115.396531,82.8848402 114.841165,80.6403532 C114.281926,78.3802181 112.029455,77.0977347 109.801482,77.7408952 L90.8487543,83.2120762 L70.1572622,71.2658377 L90.6525437,59.4328814 L109.827203,64.9681286 C112.055176,65.6112891 114.307647,64.3288057 114.866886,62.0686706 C115.422252,59.8241836 114.068334,57.4838596 111.838363,56.8401223 L100.708344,53.6271626 L120.244905,41.1835446 C122.236054,40.0339542 122.856336,37.4702477 121.678226,35.4297009 C120.491902,33.3749278 117.948302,32.6568577 115.978591,33.794071 L96.4279488,46.2458183 L99.2160858,34.9776971 C99.7730791,32.7266353 98.4392451,30.3863983 96.2022915,29.7406454 C93.9808255,29.0993634 91.7289387,30.4023292 91.1714458,32.6554096 L86.3721488,52.0515371 L66.2781554,63.6528096 Z" id="Rectangle-68"></path>
                        </g>
                        <path d="M109.412109,53.5738946 C111.048279,51.1245252 112,48.1940168 112,45.045045 C112,39.1109268 108.620249,33.9526149 103.649362,31.3279611 C103.660868,30.9877082 103.666667,30.6460348 103.666667,30.3030303 C103.666667,13.5671288 89.8621131,0 72.8333333,0 C59.3249099,0 47.8454198,8.53749026 43.6764266,20.4217449 C40.682369,18.8861927 37.2776786,18.018018 33.6666667,18.018018 C21.7004971,18.018018 12,27.5516761 12,39.3120393 C12,46.0648502 15.1983184,52.0835017 20.1874103,55.984657 L20.1639554,55.8898655 C19.0909212,51.5532494 21.662023,47.0871625 25.9512507,45.8489691 C30.3683807,44.5738536 34.8722121,47.1916084 35.9743981,51.6460401 L38.1914283,60.6060606 L52.5313115,60.6060606 L40.797157,49.3633893 C37.4751224,46.1804975 37.4599027,40.9616023 40.7882818,37.7726318 C44.0107791,34.6851083 49.1665498,34.6914879 52.3912638,37.7811353 L53.8403468,39 L53.8403467,44.7091765 L53.8403467,44.7091764 L53.8403467,24.1182138 C53.8403467,19.5953885 57.5711607,16 62.125075,16 C66.6712947,16 70.4098033,19.5783025 70.4098033,24.1182138 L70.4098033,44.8404899 L70.4098031,44.8404901 L70.4098029,39 L71.9959401,37.7811353 C75.2218953,34.6902987 80.3674647,34.6765235 83.5989221,37.7726318 C86.9181134,40.9527993 86.9110656,46.1814709 83.5900469,49.3633893 L71.8558924,60.6060606 L72.5097971,60.6060606 L72.8333333,60.6060606 L72.5097971,60.6060606 L72.7846705,60.6060606 C72.7846705,60.6060606 72.7846601,60.6060517 72.7846273,60.6060236 C72.8008597,60.6060483 72.817095,60.6060606 72.8333333,60.6060606 L85.2151877,60.6060606 L87.4201923,51.6946407 C88.5220387,47.2415817 93.0383976,44.6259724 97.4433397,45.8975697 C101.744483,47.1392027 104.304076,51.6002048 103.230635,55.938466 L102.639641,58.2686383 L109.412109,53.5738946 Z" id="big-snow-cloud"></path>
                    </g>
                </g>
            </g>
        </g>
    </g>
</svg>