<?xml version="1.0" encoding="UTF-8"?>
<svg width="221px" height="206px" viewBox="0 0 221 206" version="1.1" xmlns="http://www.w3.org/2000/svg" xmlns:xlink="http://www.w3.org/1999/xlink">
    <!-- Generator: Sketch 3.6.1 (26313) - http://www.bohemiancoding.com/sketch -->
    <title>PartlyCloudyDay</title>
    <desc>Created with Sketch.</desc>
    <defs></defs>
    <g id="SketchAppSources.com" stroke="none" stroke-width="1" fill="none" fill-rule="evenodd">
        <g id="Weather-Icons" transform="translate(-57.000000, -2591.000000)">
            <g id="icons" transform="translate(58.000000, 288.000000)">
                <g id="PartlyCloudyDay" transform="translate(0.000000, 2304.000000)">
                    <g id="bg" stroke="#FFFFFF" stroke-opacity="0.01">
                        <rect id="Rectangle-68" x="0" y="0" width="81" height="81" rx="4"></rect>
                    </g>
                    <g id="icon" transform="translate(14.000000, 25.000000)">
                        <g id="sun-/-big" transform="translate(17.000000, 0.000000)">
                            <circle id="Oval-1-Copy-2" stroke-opacity="0.2" stroke="#FFF308" stroke-width="3" cx="90" cy="90" r="90"></circle>
                            <circle id="Oval-1-Copy" stroke-opacity="0.6" stroke="#FFF308" stroke-width="4" cx="89.5" cy="89.5" r="79.5"></circle>
                            <circle id="Oval-1" fill="#FFEC65" cx="89.5" cy="89.5" r="67.5"></circle>
                        </g>
                        <g id="cloud-/-mini" transform="translate(134.000000, 35.000000)" fill="#FFFFFF">
                            <path d="M43.5670539,43 L15.6,43 C6.9843579,43 0,36.2358696 0,27.8918919 C0,19.5479142 6.9843579,12.7837838 15.6,12.7837838 C18.1999286,12.7837838 20.6513057,13.3997537 22.8070272,14.489228 C25.8087022,6.05734934 34.0739351,0 43.8,0 C56.0607214,0 66,9.62587788 66,21.5 C66,21.7433617 65.995825,21.985779 65.9875406,22.2271884 C69.5665795,24.0893803 72,27.7492025 72,31.9594595 C72,38.0569816 66.8960461,43 60.6,43 L43.8,43 C43.7883084,43 43.776619,42.9999912 43.7649316,42.9999737 C43.7649553,42.9999937 43.7649628,43 43.7649628,43 L43.5670539,43 L43.8,43 L43.5670539,43 Z" id="Oval-4-Copy-6"></path>
                        </g>
                        <g id="cloud-/-mini" transform="translate(0.000000, 113.000000)" fill="#FFFFFF">
                            <path d="M43.5670539,43 L15.6,43 C6.9843579,43 0,36.2358696 0,27.8918919 C0,19.5479142 6.9843579,12.7837838 15.6,12.7837838 C18.1999286,12.7837838 20.6513057,13.3997537 22.8070272,14.489228 C25.8087022,6.05734934 34.0739351,0 43.8,0 C56.0607214,0 66,9.62587788 66,21.5 C66,21.7433617 65.995825,21.985779 65.9875406,22.2271884 C69.5665795,24.0893803 72,27.7492025 72,31.9594595 C72,38.0569816 66.8960461,43 60.6,43 L43.8,43 C43.7883084,43 43.776619,42.9999912 43.7649316,42.9999737 C43.7649553,42.9999937 43.7649628,43 43.7649628,43 L43.5670539,43 L43.8,43 L43.5670539,43 Z" id="Oval-4-Copy-6"></path>
                        </g>
                        <g id="cloud-/-mini" transform="translate(29.000000, 17.000000)" fill="#FFFFFF">
                            <path d="M43.5670539,43 L15.6,43 C6.9843579,43 0,36.2358696 0,27.8918919 C0,19.5479142 6.9843579,12.7837838 15.6,12.7837838 C18.1999286,12.7837838 20.6513057,13.3997537 22.8070272,14.489228 C25.8087022,6.05734934 34.0739351,0 43.8,0 C56.0607214,0 66,9.62587788 66,21.5 C66,21.7433617 65.995825,21.985779 65.9875406,22.2271884 C69.5665795,24.0893803 72,27.7492025 72,31.9594595 C72,38.0569816 66.8960461,43 60.6,43 L43.8,43 C43.7883084,43 43.776619,42.9999912 43.7649316,42.9999737 C43.7649553,42.9999937 43.7649628,43 43.7649628,43 L43.5670539,43 L43.8,43 L43.5670539,43 Z" id="Oval-4-Copy-6"></path>
                        </g>
                    </g>
                </g>
            </g>
        </g>
    </g>
</svg>